<?xml version="1.0" encoding="UTF-8"?>
<svg width="48" height="16" viewBox="0 0 48 16" fill="none" xmlns="http://www.w3.org/2000/svg">
    <rect width="48" height="16" rx="2" fill="#0079BE"/>
    <circle cx="16" cy="8" r="6" fill="white"/>
    <circle cx="32" cy="8" r="6" fill="white"/>
    <path d="M16 2C12.6863 2 10 4.68629 10 8C10 11.3137 12.6863 14 16 14C19.3137 14 22 11.3137 22 8C22 4.68629 19.3137 2 16 2ZM16.5 11V5C18.433 5 20 6.567 20 8.5C20 10.433 18.433 12 16.5 12V11Z" fill="#0079BE"/>
    <path d="M32 2C28.6863 2 26 4.68629 26 8C26 11.3137 28.6863 14 32 14C35.3137 14 38 11.3137 38 8C38 4.68629 35.3137 2 32 2ZM32.5 11V5C34.433 5 36 6.567 36 8.5C36 10.433 34.433 12 32.5 12V11Z" fill="#0079BE"/>
</svg> 