<?xml version="1.0" encoding="UTF-8"?>
<svg width="48" height="16" viewBox="0 0 48 16" fill="none" xmlns="http://www.w3.org/2000/svg">
    <path d="M35.1016 3.125C35.1016 4.6875 33.9453 5.9375 31.7891 5.9375H29.9297L29.1016 11H26.4453L28.1484 1.25H32.8516C34.2578 1.25 35.1016 1.9375 35.1016 3.125ZM32.5391 3.3125C32.5391 2.8125 32.2266 2.5625 31.6016 2.5625H30.7578L30.2422 4.625H31.0859C31.9297 4.625 32.5391 4.0625 32.5391 3.3125Z" fill="#253B80"/>
    <path d="M42.4609 5.9375H39.8047L39.1016 11H36.4453L38.1484 1.25H42.8516C44.2578 1.25 45.1016 1.9375 45.1016 3.125C45.1016 4.6875 43.9453 5.9375 42.4609 5.9375ZM39.8047 2.5625H40.6484C41.2734 2.5625 41.5859 2.8125 41.5859 3.3125C41.5859 4.0625 40.9766 4.625 40.1328 4.625H39.2891L39.8047 2.5625Z" fill="#179BD7"/>
    <path d="M14.4141 3.125C14.4141 4.6875 13.2578 5.9375 11.1016 5.9375H9.24219L8.41406 11H5.75781L7.46094 1.25H12.1641C13.5703 1.25 14.4141 1.9375 14.4141 3.125ZM11.8516 3.3125C11.8516 2.8125 11.5391 2.5625 10.9141 2.5625H10.0703L9.55469 4.625H10.3984C11.2422 4.625 11.8516 4.0625 11.8516 3.3125Z" fill="#253B80"/>
    <path d="M21.7734 5.9375H19.1172L18.4141 11H15.7578L17.4609 1.25H22.1641C23.5703 1.25 24.4141 1.9375 24.4141 3.125C24.4141 4.6875 23.2578 5.9375 21.7734 5.9375ZM19.1172 2.5625H19.9609C20.5859 2.5625 20.8984 2.8125 20.8984 3.3125C20.8984 4.0625 20.2891 4.625 19.4453 4.625H18.6016L19.1172 2.5625Z" fill="#179BD7"/>
</svg> 