<?xml version="1.0" encoding="UTF-8"?>
<svg width="48" height="16" viewBox="0 0 48 16" fill="none" xmlns="http://www.w3.org/2000/svg">
    <path d="M19.3717 2.91016L15.8633 13.0904H12.8125L14.5533 3.93945C14.6504 3.49805 14.9375 3.19727 15.3301 3.09766C16.8769 2.71289 18.2793 2.71289 19.3717 2.91016ZM34.0967 8.50195C34.0967 5.49805 30.0684 5.39844 30.0684 4.17969C30.0684 3.75781 30.4609 3.33594 31.3428 3.23633C31.8325 3.18652 33.0713 3.13672 34.4736 3.7793L35.0605 1.29297C34.1787 0.947266 33.0225 0.650391 31.6201 0.650391C28.7158 0.650391 26.6768 2.19141 26.6768 4.42969C26.6768 6.02344 28.1748 6.91797 29.2674 7.4375C30.4121 7.95703 30.8047 8.30859 30.8047 8.80859C30.8047 9.5293 29.9229 9.90234 29.0898 9.90234C27.4463 9.90234 26.4022 9.40234 25.6172 9.00195L25.0303 11.5371C25.8154 11.9375 27.2646 12.3379 28.7627 12.3379C31.8325 12.3379 34.0967 10.8379 34.0967 8.50195ZM44.0967 13.0904H47L44.2915 0.947266H41.7285C41.1904 0.947266 40.7002 1.24805 40.5059 1.74023L35.5503 13.0904H38.9419L39.6299 11.2402H43.7041L44.0967 13.0904ZM40.5547 8.85156L42.1006 4.47949L43.0801 8.85156H40.5547ZM24.1191 0.947266L21.4102 13.0904H18.1162L20.8252 0.947266H24.1191Z" fill="#1434CB"/>
    <path d="M9.51172 0.947266L3.93945 9.00195L3.35156 4.08691C3.20312 3.00781 2.41797 1.87793 1.37695 1.29004L6.60742 13.0904H10.0479L17.5068 0.947266H9.51172Z" fill="#1434CB"/>
    <path d="M4.91992 0.947266H0.0488281L0 1.19727C3.79297 2.08398 6.3125 4.375 7.29297 7.1875L6.26172 2.08398C6.11328 1.29883 5.57422 0.996094 4.91992 0.947266Z" fill="#F79410"/>
</svg> 